<?xml version="1.0" encoding="UTF-8"?><svg xmlns="http://www.w3.org/2000/svg" xmlns:xlink="http://www.w3.org/1999/xlink" contentScriptType="text/ecmascript" width="375" zoomAndPan="magnify" contentStyleType="text/css" viewBox="0 0 375 374.999991" height="374.999991" preserveAspectRatio="xMidYMid meet" version="1.0"><defs><clipPath id="clip-0"><path d="M 93.410156 92.277344 L 374.9375 92.277344 L 374.9375 225.925781 L 93.410156 225.925781 Z M 93.410156 92.277344 " clip-rule="nonzero"/></clipPath></defs><path fill="rgb(98.81897%, 83.139038%, 25.489807%)" d="M 75.722656 195.136719 C 58.082031 184.328125 36.902344 179.554688 22.589844 199.964844 C 35.695312 187.410156 57.589844 197.328125 74.722656 210.019531 C 89.234375 220.796875 100.351562 234.933594 113.75 246.945312 C 134.175781 265.1875 158.757812 279.679688 179.867188 264.316406 C 160.972656 271.367188 139.910156 255.933594 121.867188 238.398438 C 106.695312 223.601562 94.019531 206.371094 75.722656 195.136719 " fill-opacity="1" fill-rule="evenodd"/><path fill="rgb(96.469116%, 54.119873%, 9.408569%)" d="M 0.0742188 159.519531 C 50.398438 107.671875 107.648438 188.378906 143.230469 220.886719 C 192.5625 265.976562 255.03125 287.953125 281.507812 211.824219 C 251.042969 256.742188 198.265625 235.023438 155.398438 195.84375 C 118.933594 162.539062 60.691406 87 0.0742188 159.519531 " fill-opacity="1" fill-rule="evenodd"/><path fill="rgb(98.81897%, 83.139038%, 25.489807%)" d="M 299.289062 159.53125 C 316.929688 170.335938 338.128906 175.109375 352.445312 154.695312 C 339.316406 167.253906 317.433594 157.335938 300.289062 144.644531 C 285.777344 133.863281 274.660156 119.746094 261.261719 107.730469 C 240.839844 89.476562 216.269531 74.96875 195.148438 90.335938 C 214.039062 83.296875 235.101562 98.726562 253.148438 116.28125 C 268.339844 131.0625 280.992188 148.296875 299.289062 159.53125 " fill-opacity="1" fill-rule="evenodd"/><g clip-path="url(#clip-0)"><path fill="rgb(96.469116%, 54.119873%, 9.408569%)" d="M 374.9375 195.148438 C 324.632812 247.003906 267.367188 166.285156 231.78125 133.78125 C 182.445312 88.703125 119.984375 66.714844 93.503906 142.859375 C 123.96875 97.917969 176.761719 119.652344 219.613281 158.820312 C 256.082031 192.132812 314.324219 267.664062 374.9375 195.148438 " fill-opacity="1" fill-rule="evenodd"/></g></svg>