<?xml version="1.0" encoding="UTF-8"?><svg xmlns="http://www.w3.org/2000/svg" xmlns:xlink="http://www.w3.org/1999/xlink" contentScriptType="text/ecmascript" width="375" zoomAndPan="magnify" contentStyleType="text/css" viewBox="0 0 375 374.999991" height="374.999991" preserveAspectRatio="xMidYMid meet" version="1.0"><defs><clipPath id="clip-0"><path d="M 281.109375 111 L 374.757812 111 L 374.757812 142 L 281.109375 142 Z M 281.109375 111 " clip-rule="nonzero"/></clipPath></defs><path fill="rgb(92.158508%, 63.919067%, 21.958923%)" d="M 172.691406 75.777344 C 172.410156 75 172.214844 74 172.132812 72.742188 L 172.109375 72.324219 L 172.527344 72.328125 C 173.609375 72.355469 174.671875 72.246094 175.710938 72.003906 C 176.75 71.753906 177.773438 71.378906 178.769531 70.863281 C 179.511719 70.480469 180.246094 70.019531 180.964844 69.492188 C 181.683594 68.953125 182.394531 68.34375 183.09375 67.65625 L 184.082031 66.679688 L 183.742188 68.027344 C 183.296875 69.753906 182.5625 71.402344 181.664062 72.851562 C 180.710938 74.386719 179.570312 75.699219 178.394531 76.625 C 177.964844 76.964844 177.539062 77.246094 177.117188 77.46875 C 176.699219 77.683594 176.28125 77.84375 175.878906 77.933594 C 175.523438 78.007812 175.179688 78.023438 174.847656 77.972656 C 174.523438 77.925781 174.222656 77.808594 173.949219 77.617188 C 173.4375 77.257812 173.007812 76.660156 172.691406 75.777344 " fill-opacity="1" fill-rule="evenodd"/><path fill="rgb(96.469116%, 54.119873%, 9.408569%)" d="M 286.03125 139.226562 L 328.148438 113.40625 C 342.585938 122.234375 357.007812 131.097656 371.4375 139.945312 L 284.859375 139.945312 Z M 80.390625 113.914062 L 123.476562 140.335938 L 76.976562 140.335938 L 74.71875 130.296875 C 74.652344 129.984375 74.460938 129.726562 74.210938 129.566406 C 73.957031 129.410156 73.644531 129.347656 73.332031 129.414062 C 73.019531 129.488281 72.765625 129.679688 72.609375 129.929688 C 72.449219 130.183594 72.386719 130.496094 72.457031 130.808594 L 74.601562 140.335938 L 36.898438 140.335938 C 51.328125 131.484375 65.75 122.625 80.1875 113.789062 L 80.390625 113.914062 " fill-opacity="1" fill-rule="evenodd"/><path fill="rgb(100%, 92.549133%, 30.589294%)" d="M 72.855469 129.648438 C 72.757812 129.726562 72.675781 129.824219 72.609375 129.929688 C 72.496094 130.109375 72.429688 130.328125 72.429688 130.546875 L 67.773438 140.335938 L 36.898438 140.335938 C 51.328125 131.484375 65.75 122.625 80.1875 113.789062 L 80.355469 113.890625 L 72.855469 129.648438 " fill-opacity="1" fill-rule="evenodd"/><path fill="rgb(100%, 92.549133%, 30.589294%)" d="M 315.730469 139.945312 L 328.316406 113.503906 L 328.148438 113.40625 L 286.03125 139.226562 L 284.859375 139.945312 L 315.730469 139.945312 " fill-opacity="1" fill-rule="evenodd"/><path fill="rgb(100%, 92.549133%, 30.589294%)" d="M 111.710938 216.511719 C 107.675781 214.296875 102.226562 211.09375 96.367188 207.660156 L 68.34375 192.3125 C 67.101562 191.75 65.949219 191.265625 64.910156 190.875 C 64.316406 190.542969 63.910156 189.992188 63.734375 189.375 C 63.558594 188.765625 63.617188 188.082031 63.945312 187.484375 L 66.125 183.488281 C 66.457031 182.882812 67.011719 182.46875 67.628906 182.289062 C 68.242188 182.109375 68.925781 182.167969 69.527344 182.496094 L 120.453125 210.390625 L 119.914062 210.746094 C 118.566406 211.617188 117.242188 212.535156 115.945312 213.492188 C 114.640625 214.453125 113.375 215.445312 112.148438 216.46875 L 111.945312 216.636719 Z M 9.398438 296.085938 C 36.09375 310.707031 62.746094 325.484375 89.511719 339.972656 C 89.808594 340.132812 90.058594 340.34375 90.257812 340.597656 C 90.464844 340.851562 90.617188 341.148438 90.710938 341.460938 C 90.800781 341.773438 90.832031 342.105469 90.796875 342.433594 C 90.765625 342.75 90.671875 343.0625 90.515625 343.359375 L 88.320312 347.367188 C 88.160156 347.664062 87.945312 347.914062 87.695312 348.113281 C 87.4375 348.316406 87.140625 348.476562 86.828125 348.5625 C 86.511719 348.65625 86.179688 348.6875 85.847656 348.652344 C 85.53125 348.621094 85.214844 348.523438 84.921875 348.359375 L 3.253906 303.625 C 2.960938 303.46875 2.710938 303.253906 2.507812 303 C 2.304688 302.742188 2.152344 302.445312 2.058594 302.132812 C 1.96875 301.816406 1.933594 301.484375 1.972656 301.15625 C 2 300.835938 2.101562 300.519531 2.261719 300.222656 L 4.449219 296.230469 C 4.605469 295.9375 4.820312 295.683594 5.070312 295.480469 C 5.332031 295.277344 5.625 295.125 5.941406 295.03125 C 6.253906 294.941406 6.589844 294.910156 6.917969 294.945312 C 7.234375 294.980469 7.550781 295.074219 7.847656 295.238281 L 9.398438 296.085938 " fill-opacity="1" fill-rule="evenodd"/><path fill="rgb(92.158508%, 63.919067%, 21.958923%)" d="M 73.769531 195.285156 L 78.496094 187.410156 L 69.527344 182.496094 C 68.925781 182.167969 68.242188 182.109375 67.628906 182.289062 C 67.011719 182.46875 66.457031 182.882812 66.125 183.488281 L 63.945312 187.484375 C 63.617188 188.082031 63.558594 188.765625 63.734375 189.375 C 63.910156 189.992188 64.316406 190.542969 64.910156 190.875 C 65.949219 191.265625 67.101562 191.75 68.34375 192.3125 L 73.769531 195.285156 " fill-opacity="1" fill-rule="evenodd"/><path fill="rgb(92.158508%, 63.919067%, 21.958923%)" d="M 9.398438 296.085938 L 15.300781 299.320312 L 10.878906 307.804688 L 3.253906 303.625 C 2.960938 303.46875 2.710938 303.253906 2.507812 303 C 2.304688 302.742188 2.152344 302.445312 2.058594 302.132812 C 1.96875 301.816406 1.933594 301.484375 1.972656 301.15625 C 2 300.835938 2.101562 300.519531 2.261719 300.222656 L 4.449219 296.230469 C 4.605469 295.9375 4.820312 295.683594 5.070312 295.480469 C 5.332031 295.277344 5.625 295.125 5.941406 295.03125 C 6.253906 294.941406 6.589844 294.910156 6.917969 294.945312 C 7.234375 294.980469 7.550781 295.074219 7.847656 295.238281 L 9.398438 296.085938 " fill-opacity="1" fill-rule="evenodd"/><path fill="rgb(96.469116%, 54.119873%, 9.408569%)" d="M 67.675781 193.855469 L 110.894531 217.535156 L 110.476562 217.894531 C 101.839844 225.492188 94.824219 234.890625 90.019531 245.507812 C 85.390625 255.726562 82.820312 267.074219 82.820312 279.015625 C 82.820312 286.800781 83.910156 294.324219 85.949219 301.445312 C 88.054688 308.804688 91.175781 315.746094 95.140625 322.09375 L 95.261719 322.285156 L 87.109375 337.183594 C 61.894531 323.386719 36.691406 309.578125 11.488281 295.761719 C 30.101562 261.730469 48.710938 227.699219 67.335938 193.675781 L 67.675781 193.855469 " fill-opacity="1" fill-rule="evenodd"/><path fill="rgb(100%, 92.549133%, 30.589294%)" d="M 67.675781 193.855469 L 77.078125 199.007812 L 20.960938 300.957031 L 11.488281 295.761719 C 30.101562 261.730469 48.710938 227.699219 67.335938 193.675781 L 67.675781 193.855469 " fill-opacity="1" fill-rule="evenodd"/><path fill="rgb(92.158508%, 63.919067%, 21.958923%)" d="M 117.0625 345.355469 C 121.167969 348.277344 125.554688 350.828125 130.175781 352.949219 L 130.394531 353.050781 L 130.414062 355.640625 L 130.203125 355.746094 C 129.273438 356.226562 125.957031 356.589844 121.25 356.851562 C 115.96875 357.140625 108.875 357.3125 101.414062 357.378906 C 93.761719 357.433594 85.757812 357.359375 78.921875 357.15625 C 72.5 356.964844 67.09375 356.660156 63.953125 356.257812 C 63.410156 356.1875 62.957031 356.125 62.605469 356.066406 C 62.246094 356.003906 61.972656 355.953125 61.785156 355.898438 L 61.53125 355.832031 L 61.503906 355.574219 C 61.28125 353.734375 62.710938 351.824219 65.164062 349.910156 C 67.535156 348.0625 70.886719 346.1875 74.625 344.378906 L 74.804688 344.289062 L 84.304688 349.492188 C 84.753906 349.738281 85.226562 349.882812 85.707031 349.933594 C 86.207031 349.988281 86.710938 349.941406 87.1875 349.800781 C 87.664062 349.664062 88.113281 349.429688 88.503906 349.113281 C 88.882812 348.8125 89.203125 348.433594 89.453125 347.984375 L 91.640625 343.992188 C 91.882812 343.542969 92.027344 343.0625 92.078125 342.582031 C 92.128906 342.082031 92.085938 341.578125 91.949219 341.105469 C 91.8125 340.652344 91.601562 340.226562 91.3125 339.851562 C 91.03125 339.488281 90.679688 339.167969 90.265625 338.917969 C 89.839844 338.65625 89.359375 338.417969 88.921875 338.175781 L 90.589844 337.503906 C 93.179688 336.460938 95.765625 335.421875 98.300781 334.308594 L 98.449219 334.246094 L 98.597656 334.304688 C 98.988281 334.457031 99.40625 334.589844 99.851562 334.707031 C 100.300781 334.828125 100.785156 334.925781 101.292969 335.011719 C 101.871094 335.105469 102.488281 335.179688 103.15625 335.230469 C 103.832031 335.285156 104.542969 335.3125 105.28125 335.320312 L 105.445312 335.320312 L 105.558594 335.441406 C 109.074219 339.089844 112.921875 342.414062 117.0625 345.355469 Z M 266.457031 355.375 L 266.457031 355.609375 L 266.667969 355.714844 C 267.335938 356.058594 269.183594 356.339844 271.867188 356.570312 C 274.746094 356.808594 278.644531 357 283.113281 357.132812 L 283.835938 357.152344 C 280.285156 351.460938 276.734375 345.773438 273.195312 340.074219 L 272.992188 340.066406 C 272.019531 340.007812 271.03125 339.925781 270.035156 339.820312 C 269.023438 339.707031 268.019531 339.574219 267.011719 339.417969 L 266.570312 339.351562 Z M 309.964844 356.722656 L 309.585938 357.324219 L 310.292969 357.3125 C 313.328125 357.265625 316.257812 357.203125 318.992188 357.117188 C 321.664062 357.035156 324.144531 356.933594 326.335938 356.8125 L 326.703125 356.792969 L 326.703125 346.296875 L 326.5 346.1875 C 325.359375 345.566406 324.175781 344.960938 322.960938 344.371094 C 321.742188 343.773438 320.464844 343.179688 319.160156 342.589844 L 318.851562 342.453125 Z M 334.507812 351.917969 C 335.558594 353.140625 336.097656 354.355469 335.953125 355.542969 L 335.921875 355.800781 L 335.667969 355.871094 C 335.484375 355.921875 335.207031 355.980469 334.839844 356.039062 C 334.484375 356.097656 334.03125 356.160156 333.488281 356.230469 C 333 356.292969 332.46875 356.351562 331.90625 356.410156 C 331.296875 356.472656 330.664062 356.523438 330.007812 356.574219 L 329.589844 356.609375 L 329.589844 347.976562 L 330.1875 348.363281 C 332.007812 349.554688 333.5 350.746094 334.507812 351.917969 Z M 290.445312 338.0625 C 293.417969 337.140625 296.296875 335.910156 299.070312 334.367188 L 299.238281 334.273438 L 299.410156 334.351562 C 301.628906 335.304688 303.839844 336.203125 306.054688 337.09375 L 306.21875 337.160156 C 307.691406 337.753906 309.238281 338.382812 310.886719 339.058594 C 312.5 339.71875 314.140625 340.402344 315.765625 341.101562 L 316.183594 341.277344 C 312.863281 346.601562 309.363281 351.972656 306.167969 357.359375 L 305.949219 357.359375 C 304.246094 357.375 302.527344 357.378906 300.808594 357.378906 C 299.101562 357.378906 297.394531 357.371094 295.703125 357.359375 L 293.382812 357.335938 L 290.730469 357.300781 L 290.699219 356.945312 C 290.683594 356.703125 290.632812 356.460938 290.554688 356.21875 C 290.476562 355.988281 290.375 355.761719 290.238281 355.542969 L 280.542969 339.984375 L 281.164062 339.921875 C 284.335938 339.613281 287.4375 338.996094 290.445312 338.0625 " fill-opacity="1" fill-rule="evenodd"/><path fill="rgb(92.158508%, 63.919067%, 21.958923%)" d="M 150.222656 200.179688 C 154.730469 199.390625 159.371094 198.984375 164.101562 198.984375 C 174.503906 198.984375 184.441406 200.96875 193.558594 204.585938 C 203.027344 208.34375 211.609375 213.855469 218.902344 220.71875 L 219 220.804688 C 220.097656 227.433594 221.226562 234.058594 222.339844 240.6875 L 221.066406 240.898438 C 220.667969 240.964844 220.304688 241.109375 219.984375 241.3125 C 219.652344 241.519531 219.367188 241.792969 219.136719 242.109375 C 218.914062 242.425781 218.75 242.785156 218.660156 243.171875 C 218.574219 243.539062 218.558594 243.929688 218.628906 244.328125 L 219.300781 248.347656 C 219.367188 248.742188 219.511719 249.105469 219.707031 249.425781 C 219.917969 249.761719 220.191406 250.046875 220.507812 250.273438 C 220.824219 250.5 221.1875 250.664062 221.566406 250.753906 C 221.9375 250.835938 222.328125 250.851562 222.726562 250.785156 L 237.949219 248.226562 L 238.066406 248.511719 C 240.035156 253.277344 241.554688 258.273438 242.574219 263.441406 C 243.570312 268.480469 244.089844 273.6875 244.089844 279.015625 C 244.089844 301.117188 235.140625 321.132812 220.664062 335.617188 C 206.1875 350.097656 186.191406 359.058594 164.101562 359.058594 C 142.011719 359.058594 122.015625 350.097656 107.542969 335.617188 C 93.066406 321.132812 84.113281 301.117188 84.113281 279.015625 C 84.113281 262.714844 88.984375 247.550781 97.351562 234.902344 C 105.976562 221.859375 118.316406 211.496094 132.863281 205.3125 L 132.917969 205.300781 C 133.578125 205.125 134.238281 204.910156 134.882812 204.65625 C 135.53125 204.398438 136.164062 204.109375 136.773438 203.78125 L 136.820312 203.757812 C 141.132812 202.191406 145.613281 200.988281 150.222656 200.179688 " fill-opacity="1" fill-rule="evenodd"/><path fill="rgb(92.158508%, 63.919067%, 21.958923%)" d="M 262.730469 311.285156 L 262.730469 311.398438 C 265.273438 315.492188 267.828125 319.578125 270.375 323.667969 L 270.707031 323.164062 C 274.96875 316.730469 278.324219 309.640625 280.59375 302.082031 C 282.789062 294.78125 283.96875 287.035156 283.96875 279.015625 C 283.96875 272.496094 283.191406 266.148438 281.710938 260.070312 C 280.195312 253.8125 277.941406 247.839844 275.046875 242.253906 L 274.917969 242.003906 C 270.820312 242.695312 266.722656 243.386719 262.625 244.070312 Z M 263.335938 324.257812 L 266.367188 329.117188 L 266.195312 329.332031 C 265.738281 329.894531 265.265625 330.460938 264.769531 331.039062 C 264.300781 331.589844 263.804688 332.152344 263.296875 332.710938 L 262.621094 333.457031 L 262.621094 323.105469 Z M 256.335938 324.460938 L 256.335938 323.105469 L 238.929688 351.042969 L 240.167969 350.414062 C 243.050781 348.945312 245.835938 347.3125 248.503906 345.519531 C 251.191406 343.71875 253.757812 341.753906 256.199219 339.648438 L 256.335938 339.53125 Z M 201.203125 206.632812 C 195.304688 203.601562 188.984375 201.269531 182.359375 199.746094 L 179.023438 198.984375 L 203.980469 198.984375 C 205.121094 198.984375 206.269531 199.007812 207.433594 199.054688 C 208.605469 199.105469 209.757812 199.179688 210.878906 199.277344 L 211.277344 199.3125 L 211.234375 199.699219 C 211.222656 199.816406 211.214844 199.9375 211.21875 200.054688 C 211.21875 200.167969 211.230469 200.285156 211.246094 200.40625 L 211.25 200.453125 C 211.25 200.984375 211.511719 202.324219 211.722656 203.386719 C 211.808594 203.828125 211.886719 204.21875 211.933594 204.519531 C 212.003906 204.914062 212.144531 205.28125 212.34375 205.601562 C 212.554688 205.933594 212.828125 206.222656 213.144531 206.445312 C 213.457031 206.671875 213.820312 206.835938 214.203125 206.925781 C 214.574219 207.011719 214.960938 207.027344 215.359375 206.960938 L 216.636719 206.742188 L 218.644531 218.710938 L 217.828125 217.988281 C 212.800781 213.550781 207.21875 209.726562 201.203125 206.632812 Z M 239.746094 247.921875 L 256.335938 245.132812 L 256.335938 311.238281 C 247.238281 325.84375 238.132812 340.453125 229.027344 355.054688 L 228.890625 355.097656 C 224.929688 356.394531 220.832031 357.394531 216.621094 358.0625 C 212.5 358.714844 208.277344 359.058594 203.980469 359.058594 L 179.023438 359.058594 L 182.359375 358.292969 C 200.589844 354.105469 216.484375 343.78125 227.746094 329.613281 C 238.789062 315.726562 245.386719 298.140625 245.386719 279.015625 C 245.386719 273.675781 244.871094 268.464844 243.890625 263.414062 C 242.886719 258.234375 241.386719 253.230469 239.445312 248.449219 L 239.269531 248 L 239.746094 247.921875 " fill-opacity="1" fill-rule="evenodd"/><path fill="rgb(96.469116%, 54.119873%, 9.408569%)" d="M 218.292969 206.464844 L 287.980469 194.738281 C 289.878906 206.054688 291.777344 217.371094 293.683594 228.679688 C 270.332031 232.621094 246.96875 236.546875 223.613281 240.46875 C 221.703125 229.160156 219.804688 217.847656 217.90625 206.53125 L 218.292969 206.464844 " fill-opacity="1" fill-rule="evenodd"/><path fill="rgb(100%, 92.549133%, 30.589294%)" d="M 233.050781 238.882812 L 223.613281 240.46875 C 221.703125 229.160156 219.804688 217.847656 217.90625 206.53125 L 227.570312 204.90625 C 229.519531 216.210938 231.480469 227.515625 233.4375 238.820312 L 233.050781 238.882812 " fill-opacity="1" fill-rule="evenodd"/><path fill="rgb(100%, 92.549133%, 30.589294%)" d="M 222.171875 242.023438 L 221.277344 242.171875 C 221.054688 242.210938 220.847656 242.296875 220.664062 242.410156 C 220.476562 242.527344 220.316406 242.679688 220.1875 242.859375 C 220.058594 243.039062 219.96875 243.242188 219.917969 243.457031 C 219.867188 243.667969 219.859375 243.886719 219.898438 244.113281 L 220.574219 248.132812 C 220.613281 248.355469 220.691406 248.5625 220.804688 248.742188 C 220.925781 248.933594 221.082031 249.09375 221.257812 249.21875 C 221.4375 249.351562 221.640625 249.445312 221.855469 249.492188 C 222.066406 249.539062 222.289062 249.546875 222.511719 249.515625 L 297.691406 236.863281 C 297.910156 236.824219 298.113281 236.742188 298.296875 236.628906 C 298.484375 236.507812 298.644531 236.355469 298.769531 236.183594 C 298.898438 236 298.988281 235.796875 299.039062 235.578125 C 299.089844 235.371094 299.097656 235.148438 299.058594 234.925781 L 298.382812 230.90625 C 298.347656 230.683594 298.265625 230.476562 298.152344 230.292969 C 298.035156 230.101562 297.878906 229.941406 297.703125 229.816406 C 297.523438 229.6875 297.316406 229.597656 297.101562 229.546875 C 296.890625 229.496094 296.667969 229.488281 296.445312 229.527344 Z M 257.359375 312.054688 L 257.628906 244.914062 L 261.332031 244.289062 L 261.597656 312.054688 C 265.859375 318.59375 274.140625 331.988281 281.199219 343.40625 C 284.140625 348.167969 286.871094 352.582031 289.144531 356.226562 C 289.410156 356.65625 289.480469 357.164062 289.371094 357.625 C 289.265625 358.085938 288.984375 358.511719 288.550781 358.78125 C 288.121094 359.046875 287.621094 359.117188 287.15625 359.007812 C 286.695312 358.902344 286.269531 358.621094 286 358.191406 L 261.328125 318.589844 L 261.328125 357.207031 C 261.328125 357.714844 261.121094 358.179688 260.785156 358.511719 C 260.449219 358.847656 259.988281 359.058594 259.480469 359.058594 C 258.972656 359.058594 258.507812 358.847656 258.171875 358.511719 C 257.839844 358.179688 257.632812 357.714844 257.632812 357.207031 L 257.632812 318.589844 L 232.957031 358.191406 C 232.6875 358.621094 232.261719 358.902344 231.800781 359.007812 C 231.339844 359.117188 230.835938 359.046875 230.40625 358.78125 C 229.972656 358.511719 229.691406 358.085938 229.585938 357.625 C 229.480469 357.164062 229.546875 356.65625 229.8125 356.226562 C 232.011719 352.707031 234.488281 348.609375 237.152344 344.203125 C 243.195312 334.207031 250.214844 322.601562 257.359375 312.054688 Z M 213.902344 198.347656 C 223.410156 196.75 239.828125 192.871094 248.667969 192.59375 L 248.664062 192.5 L 289.082031 185.699219 C 289.304688 185.660156 289.527344 185.671875 289.734375 185.714844 C 289.949219 185.769531 290.15625 185.859375 290.335938 185.988281 C 290.511719 186.117188 290.667969 186.277344 290.785156 186.46875 C 290.898438 186.644531 290.980469 186.855469 291.015625 187.078125 L 291.691406 191.097656 C 291.730469 191.320312 291.722656 191.542969 291.675781 191.753906 C 291.621094 191.972656 291.53125 192.171875 291.40625 192.351562 C 291.277344 192.53125 291.117188 192.6875 290.925781 192.804688 C 290.746094 192.914062 290.539062 193 290.316406 193.039062 C 265.261719 197.253906 240.203125 201.472656 215.144531 205.6875 C 214.921875 205.722656 214.699219 205.714844 214.496094 205.664062 C 214.273438 205.617188 214.070312 205.519531 213.890625 205.394531 C 213.714844 205.269531 213.5625 205.105469 213.4375 204.917969 C 213.324219 204.734375 213.246094 204.527344 213.207031 204.308594 L 212.53125 200.285156 C 212.496094 200.0625 212.503906 199.839844 212.550781 199.632812 C 212.601562 199.414062 212.695312 199.207031 212.820312 199.03125 C 212.949219 198.855469 213.113281 198.703125 213.292969 198.582031 C 213.476562 198.46875 213.683594 198.390625 213.902344 198.347656 " fill-opacity="1" fill-rule="evenodd"/><path fill="rgb(96.469116%, 54.119873%, 9.408569%)" d="M 101.429688 330.8125 C 102.136719 331.671875 102.847656 332.496094 103.574219 333.300781 L 104.214844 334.023438 L 103.253906 333.945312 C 102.941406 333.921875 102.640625 333.890625 102.351562 333.859375 C 102.066406 333.824219 101.785156 333.78125 101.503906 333.734375 C 101.125 333.675781 100.757812 333.601562 100.414062 333.519531 C 100.0625 333.433594 99.738281 333.34375 99.441406 333.242188 L 99.207031 333.160156 L 98.941406 330.71875 L 98.535156 327.121094 L 99.386719 328.242188 C 100.050781 329.105469 100.726562 329.96875 101.429688 330.8125 Z M 266.582031 337.707031 L 266.578125 338.039062 L 266.90625 338.09375 C 267.722656 338.222656 268.507812 338.335938 269.265625 338.429688 C 270.042969 338.523438 270.816406 338.601562 271.589844 338.671875 L 272.359375 338.734375 L 267.09375 330.28125 L 266.632812 330.835938 Z M 283.046875 260.085938 C 281.554688 253.828125 279.34375 247.847656 276.5 242.246094 L 276.261719 241.777344 L 297.472656 238.207031 L 297.589844 238.492188 C 300.613281 245.753906 302.195312 254.109375 302.851562 263.015625 C 303.503906 271.902344 303.226562 281.335938 302.515625 290.765625 C 301.804688 300.257812 300.652344 309.757812 299.570312 318.707031 L 299.566406 318.730469 C 299.269531 321.1875 298.972656 323.640625 298.695312 326.042969 C 298.40625 328.503906 298.132812 330.949219 297.878906 333.355469 L 297.859375 333.5625 L 297.675781 333.65625 C 294.941406 335.113281 292.09375 336.253906 289.164062 337.09375 C 286.195312 337.949219 283.132812 338.484375 280 338.722656 L 279.769531 338.742188 C 276.882812 334.121094 274.003906 329.496094 271.125 324.867188 L 271.265625 324.65625 C 275.757812 318.042969 279.300781 310.722656 281.699219 302.90625 C 284.015625 295.355469 285.265625 287.332031 285.265625 279.015625 C 285.265625 272.5 284.496094 266.160156 283.046875 260.085938 " fill-opacity="1" fill-rule="evenodd"/><path fill="rgb(96.469116%, 54.119873%, 9.408569%)" d="M 192.738281 47.839844 C 192.085938 45.691406 191.175781 43.910156 190.054688 42.460938 C 189.359375 41.554688 188.582031 40.777344 187.734375 40.125 C 186.863281 39.445312 185.917969 38.898438 184.914062 38.46875 C 183.949219 38.058594 182.933594 37.761719 181.878906 37.566406 C 180.78125 37.363281 179.636719 37.277344 178.46875 37.285156 C 176.214844 37.308594 169.996094 38.449219 165.273438 40.855469 C 162.792969 42.125 160.738281 43.738281 159.9375 45.707031 L 160.113281 45.578125 C 160.460938 45.328125 160.832031 45.066406 161.234375 44.796875 L 162.074219 44.230469 L 161.824219 45.210938 C 161.53125 46.378906 161.261719 47.617188 161.015625 48.933594 C 160.773438 50.253906 160.546875 51.65625 160.351562 53.144531 L 160.257812 53.875 L 160.082031 55.351562 L 159.527344 54.867188 C 158.738281 54.175781 158.039062 53.449219 157.425781 52.691406 C 156.789062 51.90625 156.242188 51.082031 155.78125 50.230469 C 154.914062 48.636719 154.339844 46.929688 154.042969 45.179688 C 153.726562 43.355469 153.707031 41.46875 153.953125 39.589844 C 154.195312 37.738281 154.6875 35.894531 155.414062 34.109375 C 156.140625 32.316406 157.101562 30.578125 158.261719 28.953125 C 159.363281 27.417969 160.644531 25.984375 162.082031 24.703125 C 163.476562 23.464844 165.019531 22.371094 166.691406 21.460938 C 169.230469 20.082031 172.039062 18.953125 174.980469 18.09375 C 178.023438 17.207031 181.207031 16.605469 184.394531 16.292969 C 187.605469 15.980469 190.816406 15.960938 193.875 16.246094 C 196.878906 16.523438 199.738281 17.097656 202.308594 17.964844 C 205.507812 19.042969 208.175781 20.609375 210.300781 22.625 C 212.457031 24.664062 214.050781 27.164062 215.089844 30.082031 C 216.023438 32.703125 216.503906 35.667969 216.539062 38.949219 C 216.570312 42.207031 216.160156 45.773438 215.296875 49.625 L 215.082031 50.601562 L 214.585938 49.738281 C 214.234375 49.121094 213.835938 48.5625 213.394531 48.066406 C 212.957031 47.574219 212.476562 47.144531 211.972656 46.792969 C 211.222656 46.273438 210.414062 45.914062 209.582031 45.753906 C 208.785156 45.601562 207.957031 45.625 207.140625 45.851562 C 205.914062 46.191406 204.699219 47 203.601562 48.371094 C 202.589844 49.632812 201.683594 51.375 200.957031 53.664062 L 200.890625 53.875 L 193.882812 55.460938 L 193.863281 55 C 193.75 52.257812 193.363281 49.882812 192.738281 47.839844 " fill-opacity="1" fill-rule="evenodd"/><path fill="rgb(92.158508%, 63.919067%, 21.958923%)" d="M 156.546875 51.496094 C 156.269531 51.085938 156.015625 50.664062 155.78125 50.230469 C 154.914062 48.636719 154.339844 46.929688 154.042969 45.179688 C 153.726562 43.355469 153.707031 41.46875 153.953125 39.589844 C 154.195312 37.738281 154.6875 35.894531 155.414062 34.109375 C 156.140625 32.316406 157.101562 30.578125 158.261719 28.953125 C 159.363281 27.417969 160.644531 25.984375 162.082031 24.703125 C 163.476562 23.464844 165.019531 22.371094 166.691406 21.460938 C 169.230469 20.082031 172.039062 18.953125 174.980469 18.09375 C 178.023438 17.207031 181.207031 16.605469 184.394531 16.292969 C 186.355469 16.101562 188.316406 16.019531 190.242188 16.046875 C 190.761719 16.234375 191.277344 16.429688 191.804688 16.632812 C 169.4375 17.433594 154.410156 32.777344 156.546875 51.496094 " fill-opacity="1" fill-rule="evenodd"/><path fill="rgb(92.158508%, 63.919067%, 21.958923%)" d="M 222.171875 242.023438 L 229.851562 240.734375 L 231.121094 248.066406 L 222.511719 249.515625 C 222.289062 249.546875 222.066406 249.539062 221.855469 249.492188 C 221.640625 249.445312 221.4375 249.351562 221.257812 249.21875 C 221.082031 249.09375 220.925781 248.933594 220.804688 248.742188 C 220.691406 248.5625 220.613281 248.355469 220.574219 248.132812 L 219.898438 244.113281 C 219.859375 243.886719 219.867188 243.667969 219.917969 243.457031 C 219.96875 243.242188 220.058594 243.039062 220.1875 242.859375 C 220.316406 242.679688 220.476562 242.527344 220.664062 242.410156 C 220.847656 242.296875 221.054688 242.210938 221.277344 242.171875 Z M 223.160156 204.339844 L 215.144531 205.6875 C 214.921875 205.722656 214.699219 205.714844 214.496094 205.664062 C 214.273438 205.617188 214.070312 205.519531 213.890625 205.394531 C 213.714844 205.269531 213.5625 205.105469 213.4375 204.917969 C 213.324219 204.734375 213.246094 204.527344 213.207031 204.308594 L 212.53125 200.285156 C 212.496094 200.0625 212.503906 199.839844 212.550781 199.632812 C 212.601562 199.414062 212.695312 199.207031 212.820312 199.03125 C 212.949219 198.855469 213.113281 198.703125 213.292969 198.582031 C 213.476562 198.46875 213.683594 198.390625 213.898438 198.347656 L 222.277344 196.941406 L 223.542969 204.273438 L 223.160156 204.339844 " fill-opacity="1" fill-rule="evenodd"/><path fill="rgb(92.158508%, 63.919067%, 21.958923%)" d="M 248.175781 184.109375 C 248.355469 186.332031 248.492188 188.550781 248.59375 190.757812 L 248.613281 191.195312 L 263.042969 188.769531 L 262.808594 188.300781 C 261.839844 186.371094 260.855469 184.769531 259.878906 183.449219 C 258.898438 182.117188 257.925781 181.066406 256.984375 180.230469 C 255.972656 179.335938 255.003906 178.699219 254.109375 178.246094 C 253.207031 177.789062 252.378906 177.519531 251.660156 177.363281 C 251.195312 177.257812 250.777344 177.210938 250.390625 177.179688 C 250.019531 177.148438 249.65625 177.144531 249.285156 177.136719 L 249.277344 177.136719 C 248.859375 177.132812 248.4375 177.125 247.953125 177.082031 L 247.484375 177.046875 L 247.539062 177.515625 C 247.789062 179.703125 248.003906 181.898438 248.175781 184.109375 Z M 229.378906 193.824219 L 237.679688 175.445312 L 238.121094 175.398438 C 239.039062 175.308594 239.910156 175.289062 240.730469 175.335938 C 241.554688 175.382812 242.328125 175.503906 243.054688 175.691406 L 243.109375 175.714844 C 243.671875 175.960938 244.175781 176.160156 244.636719 176.324219 C 245.085938 176.484375 245.503906 176.617188 245.898438 176.726562 L 246.15625 176.792969 L 246.183594 177.054688 C 246.460938 179.371094 246.691406 181.699219 246.878906 184.035156 C 247.070312 186.355469 247.214844 188.703125 247.320312 191.070312 L 247.332031 191.414062 C 241.25 192.433594 235.164062 193.460938 229.082031 194.484375 Z M 193.425781 106.792969 C 192.105469 106.679688 190.824219 106.472656 189.625 106.152344 C 187.746094 105.65625 186.046875 104.894531 184.625 103.84375 C 183.308594 102.871094 182.230469 101.648438 181.480469 100.144531 L 181.269531 99.722656 L 180.894531 100.019531 C 179.351562 101.253906 177.839844 102.175781 176.339844 102.941406 C 174.835938 103.714844 173.328125 104.335938 171.800781 104.964844 C 169.214844 106.035156 166.578125 107.125 163.75 109.082031 C 160.929688 111.039062 157.929688 113.859375 154.644531 118.375 C 152.375 121.488281 150.199219 125.710938 148.074219 130.484375 C 145.953125 135.25 143.882812 140.550781 141.820312 145.851562 C 135.441406 162.195312 129.066406 178.539062 120.878906 179.515625 C 119.710938 179.652344 118.511719 179.585938 117.28125 179.308594 C 116.042969 179.03125 114.765625 178.542969 113.460938 177.847656 C 112.1875 177.167969 110.882812 176.292969 109.546875 175.210938 C 108.199219 174.128906 106.820312 172.84375 105.414062 171.363281 L 105.410156 171.359375 C 103.652344 169.492188 101.910156 167.722656 100.195312 166.054688 C 98.386719 164.304688 96.617188 162.667969 94.890625 161.148438 L 94.609375 160.902344 L 94.351562 161.171875 C 93.222656 162.367188 92.230469 163.613281 91.367188 164.902344 C 90.507812 166.195312 89.777344 167.53125 89.1875 168.917969 C 88.574219 170.347656 88.105469 171.835938 87.78125 173.367188 C 87.457031 174.894531 87.273438 176.480469 87.234375 178.117188 L 87.230469 178.277344 L 87.34375 178.390625 C 91.671875 182.933594 95.796875 186.882812 99.722656 190.246094 C 103.648438 193.605469 107.375 196.378906 110.898438 198.566406 C 115.058594 201.148438 118.929688 202.902344 122.507812 203.820312 C 126.105469 204.75 129.417969 204.839844 132.425781 204.085938 L 132.484375 204.066406 C 133.070312 203.820312 133.679688 203.574219 134.320312 203.320312 C 134.945312 203.074219 135.5625 202.835938 136.171875 202.617188 L 136.230469 202.585938 C 141.550781 199.554688 145.992188 194.722656 149.554688 188.089844 C 153.097656 181.484375 155.769531 173.09375 157.570312 162.917969 L 157.570312 162.90625 C 158.289062 158.160156 159.285156 152.433594 160.414062 147.804688 C 160.863281 145.949219 161.332031 144.277344 161.8125 142.914062 C 160.988281 147.449219 160.261719 151.863281 159.628906 156.160156 C 158.859375 161.402344 158.226562 166.480469 157.742188 171.394531 C 157.28125 176.078125 156.945312 180.609375 156.742188 184.976562 C 156.539062 189.34375 156.46875 193.558594 156.523438 197.617188 L 156.527344 198.035156 L 156.945312 197.996094 C 158.144531 197.894531 159.335938 197.8125 160.515625 197.765625 C 161.6875 197.714844 162.882812 197.6875 164.101562 197.6875 L 203.980469 197.6875 C 205.300781 197.6875 206.597656 197.71875 207.871094 197.777344 C 209.171875 197.839844 210.464844 197.933594 211.746094 198.054688 L 211.929688 198.070312 L 212.058594 197.9375 C 212.277344 197.714844 212.527344 197.519531 212.8125 197.371094 C 213.082031 197.230469 213.378906 197.128906 213.699219 197.074219 L 226.324219 194.949219 C 229.175781 188.609375 232.042969 182.277344 234.902344 175.945312 L 234.113281 176.152344 C 233.75 176.253906 233.363281 176.363281 232.960938 176.484375 C 232.554688 176.605469 232.15625 176.738281 231.773438 176.867188 C 231.691406 176.894531 231.605469 176.90625 231.519531 176.898438 C 231.4375 176.894531 231.351562 176.871094 231.273438 176.832031 C 231.117188 176.753906 231.003906 176.613281 230.953125 176.453125 C 230.902344 176.296875 230.90625 176.125 230.992188 175.964844 C 231.351562 175.246094 231.941406 174.457031 232.730469 173.726562 C 233.425781 173.082031 234.273438 172.484375 235.273438 172.003906 L 237.394531 170.988281 L 235.058594 171.273438 C 234.21875 171.371094 233.601562 171.390625 233.21875 171.316406 C 233.023438 171.28125 232.933594 171.257812 232.9375 171.230469 L 232.9375 171.179688 C 232.910156 170.507812 233.105469 169.84375 233.441406 169.226562 C 233.820312 168.523438 234.390625 167.878906 235.046875 167.347656 L 236.375 166.269531 L 234.710938 166.667969 C 234.375 166.746094 234.160156 166.792969 234.074219 166.796875 C 234.992188 164.917969 236.148438 163.425781 237.414062 162.238281 C 238.976562 160.773438 240.714844 159.773438 242.390625 159.097656 L 242.535156 159.039062 L 242.9375 158.144531 L 242.910156 158.019531 C 242 154.015625 240.960938 150.046875 239.785156 146.121094 C 238.847656 142.984375 237.828125 139.867188 236.714844 136.765625 C 237.488281 138.039062 238.269531 139.71875 239.03125 141.613281 C 240.714844 145.800781 242.285156 151.03125 243.441406 155.359375 L 243.722656 156.40625 L 249.707031 143.152344 C 249.839844 142.859375 250.078125 142.644531 250.351562 142.542969 C 250.628906 142.433594 250.949219 142.4375 251.242188 142.570312 C 251.535156 142.703125 251.746094 142.9375 251.851562 143.214844 C 251.957031 143.496094 251.957031 143.816406 251.828125 144.105469 L 245.488281 158.144531 L 246.203125 158.023438 C 246.667969 157.945312 247.105469 157.890625 247.5 157.851562 C 247.960938 157.808594 248.375 157.789062 248.726562 157.785156 C 250.527344 157.769531 252.367188 157.941406 254.222656 158.261719 C 256.210938 158.609375 258.210938 159.136719 260.203125 159.796875 C 262.164062 160.449219 264.109375 161.226562 266.011719 162.09375 C 268.09375 163.046875 270.136719 164.113281 272.105469 165.238281 C 272.976562 165.738281 273.824219 166.253906 274.632812 166.78125 C 275.449219 167.308594 276.25 167.859375 277.027344 168.429688 L 277.9375 169.097656 L 277.628906 168.007812 C 275.875 161.855469 273.691406 154.949219 271.167969 147.945312 C 268.988281 141.90625 266.566406 135.808594 263.953125 130.078125 C 260.851562 123.261719 257.488281 116.96875 253.976562 111.929688 C 250.863281 107.449219 247.621094 103.949219 244.332031 101.933594 C 242.132812 100.582031 239.613281 99.707031 236.890625 99.054688 C 234.195312 98.410156 231.289062 97.988281 228.292969 97.558594 L 228.277344 97.554688 C 224.910156 97.066406 221.433594 96.5625 217.980469 95.703125 L 217.652344 95.625 L 217.527344 95.941406 C 216.769531 97.890625 215.3125 99.65625 213.40625 101.175781 C 211.328125 102.816406 208.722656 104.164062 205.890625 105.132812 C 204.5625 105.585938 203.1875 105.957031 201.804688 106.238281 C 200.425781 106.515625 199.027344 106.710938 197.632812 106.808594 C 196.210938 106.90625 194.796875 106.902344 193.425781 106.792969 Z M 261.019531 182.828125 C 259.945312 181.351562 258.871094 180.1875 257.839844 179.269531 C 257.296875 178.789062 256.757812 178.367188 256.234375 178.011719 C 255.714844 177.65625 255.207031 177.359375 254.71875 177.105469 L 254.523438 177.007812 L 254.507812 176.789062 C 254.351562 174.859375 254.367188 173.078125 254.558594 171.449219 C 254.75 169.820312 255.125 168.335938 255.667969 167.011719 C 256.160156 165.820312 256.796875 164.757812 257.578125 163.816406 C 258.355469 162.875 259.28125 162.058594 260.351562 161.367188 L 260.511719 161.257812 L 260.691406 161.324219 C 262.460938 161.949219 264.222656 162.683594 265.960938 163.496094 C 267.847656 164.375 269.691406 165.34375 271.460938 166.359375 C 272.71875 167.078125 273.933594 167.839844 275.097656 168.644531 C 276.265625 169.449219 277.378906 170.289062 278.433594 171.15625 L 278.527344 171.242188 C 279.195312 171.792969 279.832031 172.359375 280.445312 172.929688 C 281.0625 173.507812 281.664062 174.097656 282.242188 174.707031 C 283.554688 176.085938 284.769531 177.542969 285.878906 179.074219 C 286.988281 180.601562 287.996094 182.214844 288.902344 183.898438 L 289.160156 184.375 C 280.894531 185.761719 272.632812 187.152344 264.367188 188.546875 L 264.234375 188.285156 C 263.183594 186.105469 262.097656 184.308594 261.019531 182.828125 " fill-opacity="1" fill-rule="evenodd"/><path fill="rgb(92.158508%, 63.919067%, 21.958923%)" d="M 75.296875 146.695312 C 74.53125 149.042969 74.660156 151.46875 75.671875 153.972656 C 73.839844 153.210938 73.117188 153.894531 73.492188 156.03125 C 74.898438 159.496094 75.597656 161.226562 75.597656 161.226562 C 74.707031 161.5 74.464844 162.339844 74.863281 163.75 C 78.269531 169.539062 82.117188 174.332031 86.402344 178.136719 C 86.480469 172.46875 89.183594 166.449219 94.507812 160.089844 C 86.160156 152.503906 79.757812 148.042969 75.296875 146.695312 " fill-opacity="1" fill-rule="evenodd"/><path fill="rgb(92.158508%, 63.919067%, 21.958923%)" d="M 260.332031 160.285156 C 248.25 155.890625 239.351562 158.0625 233.636719 166.800781 C 233.65625 167.347656 234.609375 167.234375 236.5 166.46875 C 234.617188 167.78125 233.300781 169.355469 232.550781 171.191406 C 232.476562 171.902344 234.097656 171.929688 237.421875 171.273438 C 234.960938 172.6875 233.375 174 232.667969 175.199219 C 238.542969 174.246094 242.382812 174.464844 244.183594 175.855469 C 250.207031 176.738281 253.214844 177.175781 253.214844 177.175781 C 253.34375 168.476562 255.714844 162.847656 260.332031 160.285156 " fill-opacity="1" fill-rule="evenodd"/><path fill="rgb(92.158508%, 63.919067%, 21.958923%)" d="M 162.527344 47.90625 C 162.871094 46.25 163.253906 44.730469 163.679688 43.371094 L 163.722656 43.226562 L 163.855469 43.152344 C 166.3125 41.726562 168.867188 40.574219 171.382812 39.785156 C 173.808594 39.027344 176.210938 38.601562 178.476562 38.578125 C 179.554688 38.566406 180.601562 38.648438 181.609375 38.828125 C 182.585938 39.007812 183.523438 39.28125 184.40625 39.660156 C 185.308594 40.039062 186.164062 40.535156 186.949219 41.144531 C 187.710938 41.738281 188.410156 42.433594 189.035156 43.25 C 190.164062 44.710938 191.0625 46.546875 191.679688 48.804688 C 192.253906 50.910156 192.582031 53.390625 192.609375 56.273438 C 192.613281 56.449219 192.683594 56.613281 192.800781 56.726562 C 192.921875 56.839844 193.082031 56.914062 193.257812 56.914062 L 193.328125 56.90625 L 193.398438 56.894531 L 201.539062 55.054688 C 201.660156 55.027344 201.769531 54.964844 201.847656 54.886719 C 201.9375 54.800781 201.992188 54.699219 202.023438 54.582031 L 202.027344 54.566406 C 202.667969 52.394531 203.449219 50.742188 204.308594 49.550781 C 205.292969 48.179688 206.386719 47.398438 207.480469 47.09375 C 208.113281 46.921875 208.753906 46.910156 209.378906 47.035156 C 210.027344 47.167969 210.652344 47.449219 211.234375 47.855469 C 211.839844 48.277344 212.402344 48.832031 212.894531 49.496094 C 213.371094 50.140625 213.785156 50.890625 214.101562 51.71875 C 214.847656 53.648438 215.085938 55.984375 214.519531 58.425781 C 214.039062 60.527344 212.960938 62.707031 211.105469 64.773438 C 210.574219 65.363281 209.988281 65.890625 209.347656 66.332031 C 208.734375 66.753906 208.074219 67.101562 207.371094 67.347656 C 206.699219 67.589844 205.980469 67.742188 205.230469 67.792969 C 204.75 67.828125 204.253906 67.820312 203.742188 67.773438 C 204.109375 68.308594 204.570312 68.636719 205.085938 68.792969 C 205.933594 69.054688 206.953125 68.890625 207.964844 68.492188 L 208.507812 68.28125 L 208.492188 68.867188 C 208.40625 72.289062 208.503906 75.402344 208.777344 78.199219 C 209.050781 80.984375 209.5 83.457031 210.125 85.617188 C 210.769531 87.828125 211.597656 89.71875 212.617188 91.285156 C 213.621094 92.832031 214.8125 94.0625 216.191406 94.972656 L 216.449219 95.144531 L 216.339844 95.433594 C 215.660156 97.238281 214.292969 98.867188 212.484375 100.273438 C 210.558594 101.765625 208.125 103.003906 205.476562 103.910156 C 204.210938 104.339844 202.890625 104.699219 201.550781 104.96875 C 200.222656 105.242188 198.875 105.421875 197.546875 105.519531 C 196.191406 105.609375 194.851562 105.609375 193.558594 105.507812 C 192.308594 105.40625 191.09375 105.207031 189.953125 104.90625 C 188.175781 104.433594 186.566406 103.703125 185.25 102.6875 C 184.015625 101.738281 183.035156 100.539062 182.402344 99.0625 L 182.296875 98.816406 L 182.84375 98.300781 L 183.1875 97.964844 C 184.292969 96.863281 185.222656 95.683594 185.984375 94.421875 C 186.742188 93.164062 187.328125 91.828125 187.738281 90.417969 C 188.121094 89.105469 188.351562 87.726562 188.4375 86.285156 C 188.515625 84.839844 188.449219 83.328125 188.226562 81.753906 L 188.195312 81.542969 L 188.359375 81.40625 C 189.851562 80.140625 191.507812 78.566406 193.292969 76.558594 C 194.199219 75.539062 195.140625 74.40625 196.113281 73.152344 C 194.738281 74.421875 193.085938 75.859375 191.289062 77.34375 C 188.097656 79.992188 184.429688 82.785156 180.996094 85.023438 C 178.503906 86.644531 176.167969 87.980469 174.316406 88.714844 C 172.597656 89.402344 171.242188 89.582031 170.472656 89.035156 C 169.820312 88.570312 169.25 87.746094 168.773438 86.566406 C 168.3125 85.433594 167.933594 83.953125 167.625 82.128906 C 167.304688 80.210938 167.074219 77.9375 166.945312 75.308594 C 166.816406 72.695312 166.777344 69.71875 166.839844 66.386719 L 166.839844 66.269531 L 166.828125 66.175781 C 166.789062 66.003906 166.6875 65.859375 166.550781 65.765625 C 166.410156 65.679688 166.238281 65.640625 166.0625 65.679688 L 164.515625 66.003906 L 162.949219 66.3125 C 162.15625 66.460938 161.363281 66.605469 160.566406 66.75 L 160.585938 66.269531 C 160.679688 63.824219 160.816406 61.53125 160.988281 59.386719 C 161.164062 57.238281 161.378906 55.214844 161.628906 53.308594 C 161.886719 51.359375 162.1875 49.558594 162.527344 47.90625 Z M 172.667969 53.207031 C 172.121094 53.644531 171.558594 54.132812 171 54.683594 C 171.636719 53.195312 172.898438 51.863281 174.300781 50.953125 C 175.121094 50.421875 175.980469 50.042969 176.785156 49.863281 C 177.558594 49.6875 178.269531 49.703125 178.832031 49.953125 C 179.175781 50.109375 179.46875 50.363281 179.679688 50.726562 C 179.089844 50.664062 178.496094 50.671875 177.890625 50.75 C 177.050781 50.863281 176.210938 51.121094 175.355469 51.515625 C 174.472656 51.929688 173.578125 52.492188 172.667969 53.207031 Z M 178.148438 54.820312 C 178.417969 54.632812 178.640625 54.410156 178.773438 54.148438 L 178.726562 54.179688 C 178.457031 54.351562 178.175781 54.488281 177.886719 54.601562 C 177.578125 54.714844 176.765625 54.941406 176.027344 55.105469 C 175.820312 55.152344 175.621094 55.191406 175.433594 55.226562 C 175.636719 55.332031 175.890625 55.390625 176.167969 55.398438 C 176.496094 55.414062 176.851562 55.367188 177.191406 55.269531 C 177.535156 55.167969 177.867188 55.015625 178.148438 54.820312 Z M 183.695312 71.800781 C 184.753906 69.621094 185.445312 67.160156 185.476562 64.730469 C 185.476562 64.554688 185.40625 64.390625 185.289062 64.273438 C 185.171875 64.15625 185.011719 64.082031 184.835938 64.078125 C 184.734375 64.078125 184.640625 64.105469 184.550781 64.148438 C 184.464844 64.183594 184.382812 64.25 184.324219 64.328125 C 183.351562 65.566406 182.355469 66.632812 181.328125 67.53125 C 180.300781 68.433594 179.25 69.164062 178.175781 69.714844 C 177.121094 70.261719 176.039062 70.636719 174.925781 70.847656 C 173.8125 71.058594 172.679688 71.097656 171.515625 70.972656 C 171.339844 70.953125 171.171875 71.007812 171.042969 71.113281 C 170.914062 71.21875 170.824219 71.371094 170.808594 71.542969 L 170.800781 71.601562 L 170.804688 71.6875 C 170.832031 73.535156 171.074219 75.003906 171.476562 76.148438 C 171.898438 77.347656 172.496094 78.171875 173.210938 78.671875 C 173.636719 78.96875 174.09375 79.15625 174.570312 79.242188 C 175.070312 79.335938 175.605469 79.3125 176.152344 79.195312 C 176.640625 79.089844 177.136719 78.90625 177.632812 78.648438 C 178.15625 78.382812 178.679688 78.042969 179.191406 77.636719 C 180.875 76.304688 182.511719 74.226562 183.695312 71.800781 " fill-opacity="1" fill-rule="evenodd"/><path fill="rgb(92.158508%, 63.919067%, 21.958923%)" d="M 184.222656 101.78125 C 188.992188 98.75 191.871094 90.695312 192.863281 77.609375 L 190.5 79.464844 C 189.757812 80.183594 189.039062 80.824219 188.359375 81.40625 L 188.195312 81.542969 L 188.226562 81.753906 C 188.449219 83.328125 188.515625 84.839844 188.4375 86.285156 C 188.351562 87.726562 188.121094 89.105469 187.738281 90.417969 C 187.328125 91.828125 186.742188 93.164062 185.984375 94.421875 C 185.222656 95.683594 184.292969 96.863281 183.1875 97.964844 L 182.84375 98.300781 L 182.296875 98.816406 L 182.402344 99.0625 C 182.847656 100.101562 183.464844 101.007812 184.222656 101.78125 " fill-opacity="1" fill-rule="evenodd"/><path fill="rgb(92.158508%, 63.919067%, 21.958923%)" d="M 162 66.492188 L 160.566406 66.75 L 160.585938 66.269531 C 160.679688 63.824219 160.816406 61.53125 160.988281 59.386719 C 161.164062 57.238281 161.378906 55.214844 161.628906 53.308594 C 161.886719 51.359375 162.1875 49.558594 162.527344 47.90625 C 162.871094 46.25 163.253906 44.730469 163.679688 43.371094 L 163.722656 43.226562 L 163.855469 43.152344 C 164.414062 42.824219 164.96875 42.519531 165.527344 42.230469 C 166.078125 41.941406 166.640625 41.667969 167.214844 41.40625 L 167.941406 41.066406 L 167.75 41.847656 C 166.925781 45.21875 166.253906 48.800781 165.722656 52.574219 C 165.21875 56.199219 164.847656 60.011719 164.613281 64.007812 C 165.101562 63.894531 165.546875 63.800781 165.941406 63.730469 C 166.472656 63.632812 166.917969 63.574219 167.269531 63.554688 L 167.335938 63.554688 C 167.796875 63.613281 168.132812 63.855469 168.34375 64.285156 C 168.519531 64.644531 168.597656 65.140625 168.574219 65.769531 C 168.65625 70.949219 168.875 75.261719 169.226562 78.695312 C 169.570312 82.054688 170.042969 84.566406 170.640625 86.226562 C 171.1875 87.738281 171.800781 88.488281 172.484375 88.480469 L 172.570312 88.476562 L 179.285156 87.777344 L 172.695312 89.238281 C 172.230469 89.339844 171.8125 89.382812 171.453125 89.355469 C 171.066406 89.328125 170.742188 89.226562 170.472656 89.035156 C 169.820312 88.570312 169.25 87.746094 168.773438 86.566406 C 168.3125 85.433594 167.933594 83.953125 167.625 82.128906 C 167.304688 80.210938 167.074219 77.9375 166.945312 75.308594 C 166.816406 72.695312 166.777344 69.71875 166.839844 66.386719 L 166.839844 66.269531 L 166.828125 66.175781 C 166.789062 66.003906 166.6875 65.859375 166.550781 65.765625 C 166.410156 65.679688 166.238281 65.640625 166.0625 65.679688 L 164.515625 66.003906 L 162.949219 66.3125 L 162 66.492188 " fill-opacity="1" fill-rule="evenodd"/><path fill="rgb(6.669617%, 5.879211%, 5.488586%)" d="M 164.101562 197.300781 C 185.546875 197.300781 205.058594 205.570312 219.628906 219.097656 C 219.0625 219.648438 218.785156 220.382812 218.769531 221.125 C 204.507812 207.640625 185.273438 199.367188 164.101562 199.367188 C 120.140625 199.367188 84.5 235.027344 84.5 279.015625 C 84.5 323.011719 120.140625 358.667969 164.101562 358.667969 C 208.066406 358.667969 243.707031 323.011719 243.707031 279.015625 C 243.707031 267.894531 241.425781 257.300781 237.304688 247.683594 C 238.035156 247.699219 238.726562 247.445312 239.269531 247.007812 C 243.453125 256.839844 245.773438 267.660156 245.773438 279.015625 C 245.773438 324.152344 209.207031 360.738281 164.101562 360.738281 C 118.996094 360.738281 82.433594 324.152344 82.433594 279.015625 C 82.433594 233.886719 118.996094 197.300781 164.101562 197.300781 " fill-opacity="1" fill-rule="evenodd"/><path fill="rgb(6.669617%, 5.879211%, 5.488586%)" d="M 269.828125 323.785156 C 278.503906 311.023438 283.582031 295.617188 283.582031 279.015625 C 283.582031 265.464844 280.195312 252.699219 274.222656 241.523438 C 274.953125 241.582031 275.667969 241.464844 276.292969 241.003906 C 282.269531 252.359375 285.648438 265.296875 285.648438 279.015625 C 285.648438 296.089844 280.417969 311.9375 271.472656 325.042969 C 271.042969 324.503906 270.476562 324.03125 269.828125 323.785156 Z M 262.21875 333.316406 C 263.722656 331.699219 265.160156 330.023438 266.527344 328.289062 C 266.964844 328.882812 267.402344 329.347656 268.09375 329.644531 C 266.292969 331.925781 264.371094 334.109375 262.335938 336.183594 C 262.292969 336.085938 262.242188 335.996094 262.195312 335.90625 C 262.617188 335.125 262.570312 334.117188 262.21875 333.316406 Z M 237.027344 351.5 C 237.355469 352.285156 237.296875 352.992188 236.996094 353.785156 C 244.660156 350.386719 251.703125 345.851562 257.914062 340.386719 C 257.328125 340.027344 256.863281 339.46875 256.664062 338.726562 C 250.820312 343.894531 244.207031 348.214844 237.027344 351.5 Z M 239.257812 246.984375 C 243.449219 256.820312 245.773438 267.648438 245.773438 279.015625 C 245.773438 301.585938 236.632812 322.015625 221.851562 336.804688 C 211.203125 347.457031 197.632812 355.183594 182.445312 358.667969 L 203.980469 358.667969 C 213.007812 358.667969 221.6875 357.164062 229.773438 354.394531 C 229.296875 355.253906 228.9375 356.121094 228.921875 356.855469 C 221.0625 359.378906 212.675781 360.738281 203.980469 360.738281 L 164.101562 360.738281 L 164.101562 358.667969 C 208.066406 358.667969 243.707031 323.011719 243.707031 279.015625 C 243.707031 267.953125 241.445312 257.417969 237.371094 247.84375 C 238.003906 247.773438 238.65625 247.5 239.257812 246.984375 Z M 203.980469 197.300781 C 207.191406 197.300781 210.363281 197.484375 213.476562 197.847656 C 212.832031 198.355469 212.503906 199.074219 212.460938 199.816406 C 209.671875 199.519531 206.847656 199.367188 203.980469 199.367188 L 182.445312 199.367188 C 196.960938 202.703125 210.003906 209.90625 220.425781 219.84375 C 220.082031 220.585938 219.960938 221.597656 220.097656 222.414062 C 205.71875 208.167969 185.9375 199.367188 164.101562 199.367188 L 164.101562 197.300781 L 203.980469 197.300781 " fill-opacity="1" fill-rule="evenodd"/><path fill="rgb(6.669617%, 5.879211%, 5.488586%)" d="M 289.144531 186.078125 L 213.96875 198.730469 C 213.621094 198.792969 213.328125 198.988281 213.136719 199.253906 C 212.949219 199.523438 212.855469 199.871094 212.914062 200.222656 L 213.589844 204.242188 C 213.648438 204.59375 213.847656 204.886719 214.117188 205.082031 C 214.386719 205.273438 214.730469 205.363281 215.082031 205.304688 L 290.25 192.652344 C 290.601562 192.597656 290.894531 192.398438 291.085938 192.128906 C 291.28125 191.855469 291.371094 191.511719 291.3125 191.164062 L 290.636719 187.140625 C 290.578125 186.792969 290.382812 186.496094 290.109375 186.304688 C 289.839844 186.109375 289.492188 186.019531 289.144531 186.078125 Z M 213.734375 196.675781 L 288.804688 184.042969 C 289.714844 183.890625 290.605469 184.125 291.304688 184.621094 C 292.007812 185.121094 292.519531 185.886719 292.675781 186.800781 L 293.347656 190.824219 C 293.5 191.730469 293.269531 192.621094 292.769531 193.324219 C 292.269531 194.023438 291.503906 194.539062 290.589844 194.691406 L 215.421875 207.34375 C 214.507812 207.496094 213.621094 207.261719 212.917969 206.761719 C 212.21875 206.261719 211.707031 205.496094 211.554688 204.582031 C 211.394531 203.632812 210.859375 201.253906 210.859375 200.453125 C 210.742188 199.582031 210.980469 198.730469 211.453125 198.058594 C 211.957031 197.355469 212.71875 196.84375 213.632812 196.691406 L 213.734375 196.675781 " fill-opacity="1" fill-rule="evenodd"/><path fill="rgb(6.669617%, 5.879211%, 5.488586%)" d="M 287.660156 195.183594 L 218.351562 206.847656 L 223.929688 240.023438 L 293.238281 228.359375 Z M 216.996094 204.984375 L 289.355469 192.804688 C 291.441406 205.222656 293.527344 217.640625 295.617188 230.058594 L 222.238281 242.40625 L 215.976562 205.152344 L 216.996094 204.984375 " fill-opacity="1" fill-rule="evenodd"/><path fill="rgb(6.669617%, 5.879211%, 5.488586%)" d="M 287.660156 195.183594 L 218.351562 206.847656 L 223.929688 240.023438 L 293.238281 228.359375 Z M 216.996094 204.984375 L 289.355469 192.804688 C 291.441406 205.222656 293.527344 217.640625 295.617188 230.058594 L 222.238281 242.40625 L 215.976562 205.152344 L 216.996094 204.984375 " fill-opacity="1" fill-rule="evenodd"/><path fill="rgb(6.669617%, 5.879211%, 5.488586%)" d="M 296.507812 229.910156 L 221.339844 242.554688 C 220.992188 242.617188 220.695312 242.8125 220.503906 243.085938 C 220.3125 243.355469 220.222656 243.699219 220.28125 244.046875 L 220.953125 248.070312 C 221.015625 248.421875 221.214844 248.714844 221.484375 248.90625 C 221.753906 249.097656 222.097656 249.191406 222.449219 249.128906 L 297.625 236.480469 C 297.972656 236.421875 298.261719 236.222656 298.453125 235.953125 C 298.644531 235.683594 298.738281 235.339844 298.675781 234.988281 L 298.003906 230.96875 C 297.945312 230.621094 297.742188 230.324219 297.472656 230.132812 C 297.207031 229.9375 296.859375 229.847656 296.507812 229.910156 Z M 221 240.519531 L 296.171875 227.871094 C 297.082031 227.71875 297.972656 227.949219 298.671875 228.449219 C 299.375 228.949219 299.886719 229.71875 300.039062 230.628906 C 300.195312 231.574219 300.730469 233.960938 300.730469 234.757812 C 300.847656 235.628906 300.617188 236.480469 300.136719 237.152344 C 299.636719 237.855469 298.871094 238.367188 297.957031 238.519531 L 222.785156 251.167969 C 221.878906 251.320312 220.988281 251.089844 220.285156 250.589844 C 219.582031 250.089844 219.074219 249.324219 218.921875 248.410156 L 218.242188 244.390625 C 218.089844 243.480469 218.324219 242.585938 218.820312 241.886719 C 219.324219 241.1875 220.089844 240.671875 221 240.519531 " fill-opacity="1" fill-rule="evenodd"/><path fill="rgb(6.669617%, 5.879211%, 5.488586%)" d="M 258.015625 243.882812 L 257.746094 312.171875 C 247.464844 327.339844 237.386719 344.808594 230.144531 356.433594 C 229.71875 357.113281 229.929688 358.027344 230.609375 358.449219 C 231.292969 358.875 232.203125 358.667969 232.625 357.984375 L 258.015625 317.234375 L 258.015625 357.207031 C 258.015625 358.011719 258.675781 358.667969 259.480469 358.667969 C 260.28125 358.667969 260.941406 358.011719 260.941406 357.207031 L 260.941406 317.234375 L 286.332031 357.984375 C 286.753906 358.667969 287.664062 358.875 288.347656 358.449219 C 289.027344 358.027344 289.238281 357.113281 288.8125 356.433594 C 281.570312 344.808594 267.261719 321.4375 261.210938 312.171875 L 260.941406 243.066406 C 261.703125 242.851562 262.359375 242.644531 263 242.472656 C 263.003906 242.566406 263.007812 242.652344 263.007812 242.746094 L 263.121094 311.285156 L 290.566406 355.34375 C 291.597656 356.988281 291.085938 359.175781 289.4375 360.207031 C 287.789062 361.234375 285.605469 360.722656 284.574219 359.074219 L 263.007812 324.460938 L 263.007812 357.207031 C 263.007812 359.148438 261.421875 360.738281 259.480469 360.738281 C 257.535156 360.738281 255.949219 359.152344 255.949219 357.207031 L 255.949219 324.460938 L 234.382812 359.074219 C 233.351562 360.722656 231.171875 361.234375 229.519531 360.207031 C 227.871094 359.175781 227.363281 356.988281 228.390625 355.34375 L 255.949219 311.128906 L 255.949219 243.847656 C 256.519531 243.996094 257.203125 244.027344 258.015625 243.882812 " fill-opacity="1" fill-rule="evenodd"/><path fill="rgb(6.669617%, 5.879211%, 5.488586%)" d="M 40.15625 323.824219 L 40.15625 330.359375 C 40.097656 330.425781 40.042969 330.496094 39.996094 330.574219 L 23.289062 357.382812 C 22.851562 358.085938 23.074219 359.035156 23.777344 359.472656 C 24.488281 359.917969 25.425781 359.699219 25.867188 358.988281 L 40.15625 336.0625 L 40.15625 358.1875 C 40.15625 359.019531 40.839844 359.703125 41.675781 359.703125 C 42.511719 359.703125 43.195312 359.019531 43.195312 358.1875 L 43.195312 336.0625 L 57.480469 358.988281 C 57.921875 359.695312 58.867188 359.917969 59.574219 359.472656 C 60.285156 359.03125 60.5 358.089844 60.058594 357.382812 L 43.355469 330.574219 C 43.308594 330.496094 43.253906 330.425781 43.195312 330.359375 L 43.195312 325.109375 C 42.070312 325.324219 40.828125 324.921875 40.15625 323.824219 " fill-opacity="1" fill-rule="evenodd"/><path fill="rgb(6.669617%, 5.879211%, 5.488586%)" d="M 326.316406 273.925781 L 326.316406 324.332031 C 326.242188 324.414062 326.179688 324.5 326.121094 324.59375 L 305.988281 356.90625 C 305.460938 357.753906 305.722656 358.898438 306.574219 359.429688 C 307.425781 359.960938 308.5625 359.699219 309.09375 358.84375 L 326.316406 331.207031 L 326.316406 357.875 C 326.316406 358.878906 327.136719 359.703125 328.148438 359.703125 C 329.152344 359.703125 329.976562 358.878906 329.976562 357.875 L 329.976562 331.207031 L 347.195312 358.84375 C 347.726562 359.695312 348.867188 359.957031 349.71875 359.429688 C 350.574219 358.894531 350.835938 357.757812 350.304688 356.90625 L 330.167969 324.59375 C 330.113281 324.5 330.046875 324.414062 329.976562 324.332031 L 329.976562 140.222656 C 328.648438 140.230469 327.398438 140.34375 326.316406 140.25 L 326.316406 273.925781 " fill-opacity="1" fill-rule="evenodd"/><path fill="rgb(6.669617%, 5.879211%, 5.488586%)" d="M 82.019531 150.25 L 82.019531 140.820312 C 80.886719 140.953125 79.761719 140.894531 78.355469 140.816406 L 78.355469 148.121094 C 79.859375 148.75 80.8125 149.058594 82.019531 150.25 Z M 82.019531 188.4375 L 82.019531 171.648438 C 80.453125 172.035156 78.605469 171.078125 78.417969 168.785156 L 78.355469 168.738281 L 78.355469 186.84375 C 78.691406 187.128906 78.996094 187.449219 79.285156 187.734375 C 80.234375 187.511719 81.289062 187.742188 82.019531 188.4375 " fill-opacity="1" fill-rule="evenodd"/><path fill="rgb(6.669617%, 5.879211%, 5.488586%)" d="M 70.332031 181.023438 L 122.914062 209.832031 C 122.253906 210.140625 121.710938 210.6875 121.394531 211.351562 L 69.34375 182.835938 C 68.324219 182.277344 67.023438 182.65625 66.464844 183.671875 L 64.28125 187.667969 C 63.726562 188.679688 64.09375 189.96875 65.101562 190.539062 L 113.167969 216.867188 C 112.492188 217.1875 111.964844 217.738281 111.675781 218.398438 L 64.132812 192.359375 C 62.214844 191.308594 61.425781 188.925781 62.34375 186.941406 L 64.65625 182.691406 C 65.761719 180.671875 68.3125 179.917969 70.332031 181.023438 " fill-opacity="1" fill-rule="evenodd"/><path fill="rgb(6.669617%, 5.879211%, 5.488586%)" d="M 89.199219 340.238281 L 7.664062 295.578125 C 7.152344 295.296875 6.570312 295.253906 6.046875 295.402344 C 5.527344 295.554688 5.0625 295.90625 4.785156 296.414062 L 2.601562 300.40625 C 2.320312 300.921875 2.277344 301.5 2.429688 302.027344 C 2.582031 302.542969 2.929688 303.007812 3.4375 303.289062 L 85.101562 348.019531 C 85.617188 348.304688 86.195312 348.34375 86.722656 348.191406 C 87.238281 348.039062 87.703125 347.691406 87.980469 347.183594 L 90.171875 343.171875 C 90.445312 342.667969 90.488281 342.089844 90.335938 341.574219 C 90.1875 341.050781 89.835938 340.589844 89.328125 340.3125 Z M 8.648438 293.761719 L 90.453125 338.578125 L 90.464844 338.585938 C 91.394531 339.144531 92.03125 340.019531 92.316406 340.996094 C 92.617188 342.027344 92.527344 343.164062 91.976562 344.175781 L 89.792969 348.167969 C 89.238281 349.179688 88.320312 349.875 87.292969 350.175781 C 86.269531 350.476562 85.125 350.382812 84.117188 349.832031 L 2.457031 305.097656 C 1.441406 304.546875 0.75 303.628906 0.449219 302.597656 C 0.152344 301.574219 0.238281 300.429688 0.789062 299.421875 L 2.972656 295.429688 C 3.53125 294.417969 4.445312 293.726562 5.472656 293.425781 C 6.5 293.121094 7.644531 293.210938 8.648438 293.761719 " fill-opacity="1" fill-rule="evenodd"/><path fill="rgb(6.669617%, 5.879211%, 5.488586%)" d="M 67.578125 191.894531 L 113.164062 216.863281 C 112.503906 217.046875 111.917969 217.484375 111.492188 218.300781 L 67.492188 194.199219 L 12.011719 295.609375 L 86.953125 336.660156 L 95.246094 321.503906 C 95.730469 322.011719 96.378906 322.363281 97.066406 322.464844 L 87.773438 339.457031 C 61.585938 325.113281 35.398438 310.773438 9.210938 296.425781 C 28.367188 261.417969 47.519531 226.40625 66.675781 191.398438 L 67.578125 191.894531 " fill-opacity="1" fill-rule="evenodd"/><g clip-path="url(#clip-0)"><path fill="rgb(6.669617%, 5.879211%, 5.488586%)" d="M 370.0625 139.558594 L 328.148438 113.859375 L 286.234375 139.558594 Z M 328.703125 111.777344 L 374.261719 139.710938 C 374.75 140.007812 374.902344 140.644531 374.605469 141.132812 C 374.410156 141.449219 374.070312 141.625 373.726562 141.625 L 282.570312 141.628906 C 281.996094 141.628906 281.53125 141.164062 281.53125 140.589844 C 281.53125 140.195312 281.761719 139.847656 282.09375 139.671875 L 327.609375 111.765625 C 327.957031 111.550781 328.378906 111.570312 328.703125 111.777344 " fill-opacity="1" fill-rule="evenodd"/></g><path fill="rgb(6.669617%, 5.879211%, 5.488586%)" d="M 122.101562 139.945312 L 80.1875 114.242188 L 38.269531 139.945312 Z M 80.746094 112.160156 L 126.304688 140.097656 C 126.792969 140.394531 126.945312 141.03125 126.648438 141.515625 C 126.453125 141.835938 126.113281 142.011719 125.769531 142.011719 L 34.609375 142.015625 C 34.039062 142.015625 33.574219 141.550781 33.574219 140.980469 C 33.574219 140.578125 33.804688 140.230469 34.132812 140.0625 L 79.652344 112.15625 C 80 111.941406 80.421875 111.960938 80.746094 112.160156 " fill-opacity="1" fill-rule="evenodd"/><path fill="rgb(6.669617%, 5.879211%, 5.488586%)" d="M 178.464844 36.898438 C 180.820312 36.878906 183.054688 37.257812 185.066406 38.117188 C 187.101562 38.980469 188.902344 40.328125 190.359375 42.222656 C 192.59375 45.117188 194.015625 49.285156 194.253906 54.984375 L 200.585938 53.546875 C 202.148438 48.621094 204.558594 46.167969 207.03125 45.480469 C 208.839844 44.976562 210.644531 45.394531 212.195312 46.472656 C 213.660156 47.496094 214.898438 49.121094 215.667969 51.113281 C 217.246094 55.203125 216.859375 60.875 212.351562 65.894531 C 210.257812 68.230469 204.855469 71.472656 203.035156 67.285156 C 204.578125 67.5625 205.988281 67.429688 207.242188 66.984375 C 208.617188 66.496094 209.816406 65.625 210.816406 64.511719 C 214.71875 60.164062 215.082031 55.320312 213.738281 51.855469 C 213.125 50.257812 212.152344 48.964844 211.011719 48.175781 C 209.953125 47.4375 208.753906 47.144531 207.585938 47.46875 C 205.652344 48.007812 203.722656 50.171875 202.402344 54.671875 C 202.308594 55.042969 202.019531 55.34375 201.625 55.429688 L 193.480469 57.273438 C 193.40625 57.285156 193.335938 57.296875 193.257812 57.296875 C 192.691406 57.300781 192.226562 56.84375 192.222656 56.273438 C 192.164062 50.410156 190.859375 46.25 188.730469 43.484375 C 187.496094 41.882812 185.972656 40.746094 184.253906 40.015625 C 182.515625 39.273438 180.554688 38.941406 178.480469 38.960938 C 172.355469 39.023438 165.222656 42.101562 159.265625 46.703125 C 160.339844 39.96875 174.734375 36.9375 178.464844 36.898438 " fill-opacity="1" fill-rule="evenodd"/><path fill="rgb(6.669617%, 5.879211%, 5.488586%)" d="M 164.167969 43.113281 C 163.269531 45.886719 162.554688 49.300781 162.015625 53.359375 C 161.515625 57.121094 161.164062 61.433594 160.96875 66.285156 C 161.613281 66.171875 162.25 66.050781 162.878906 65.929688 C 163.921875 65.730469 164.957031 65.519531 165.984375 65.296875 C 166.542969 65.179688 167.085938 65.539062 167.207031 66.09375 C 167.230469 66.199219 167.234375 66.296875 167.226562 66.394531 C 167.109375 73.035156 167.371094 78.257812 168.007812 82.0625 C 168.609375 85.652344 169.511719 87.875 170.699219 88.722656 C 172.089844 89.710938 176.148438 87.71875 180.785156 84.703125 C 188.398438 79.738281 197.195312 71.996094 199.339844 69.34375 C 191.386719 81.101562 184.980469 84.425781 181.910156 86.433594 C 176.605469 89.882812 171.746094 91.992188 169.507812 90.402344 C 167.847656 89.230469 166.667969 86.5625 165.972656 82.402344 C 165.355469 78.726562 165.082031 73.785156 165.148438 67.585938 C 164.523438 67.714844 163.894531 67.839844 163.265625 67.957031 C 162.195312 68.164062 161.125 68.359375 160.066406 68.542969 C 160 68.554688 159.929688 68.558594 159.863281 68.554688 C 159.289062 68.539062 158.84375 68.0625 158.863281 67.488281 C 159.046875 62.042969 159.417969 57.242188 159.96875 53.089844 C 160.523438 48.90625 161.269531 45.367188 162.199219 42.480469 L 164.167969 43.113281 " fill-opacity="1" fill-rule="evenodd"/><path fill="rgb(6.669617%, 5.879211%, 5.488586%)" d="M 160.003906 57.382812 C 157.472656 55.570312 155.601562 53.410156 154.3125 51.035156 C 152.363281 47.445312 151.769531 43.394531 152.289062 39.375 C 152.8125 35.386719 154.421875 31.425781 156.894531 27.972656 C 159.203125 24.753906 162.265625 21.960938 165.886719 19.988281 C 171.261719 17.070312 177.753906 15.257812 184.234375 14.625 C 190.820312 13.980469 197.417969 14.542969 202.84375 16.375 C 209.800781 18.726562 214.429688 23.214844 216.671875 29.519531 C 218.886719 35.757812 218.726562 43.742188 216.140625 53.171875 L 214.152344 52.628906 C 216.625 43.621094 216.796875 36.046875 214.726562 30.210938 C 212.703125 24.523438 208.507812 20.464844 202.1875 18.332031 C 197.035156 16.59375 190.738281 16.058594 184.429688 16.675781 C 178.214844 17.285156 172 19.011719 166.875 21.800781 C 163.542969 23.613281 160.714844 26.195312 158.578125 29.183594 C 156.296875 32.363281 154.8125 36 154.335938 39.640625 C 153.867188 43.246094 154.390625 46.863281 156.121094 50.050781 C 157.261719 52.148438 158.9375 54.074219 161.207031 55.703125 L 160.003906 57.382812 " fill-opacity="1" fill-rule="evenodd"/><path fill="rgb(6.669617%, 5.879211%, 5.488586%)" d="M 210.21875 67.242188 C 209.917969 74.808594 210 89.480469 217.59375 93.871094 C 221.234375 94.835938 224.945312 95.375 228.527344 95.894531 C 234.710938 96.789062 240.523438 97.628906 245.207031 100.5 C 252.507812 104.976562 259.496094 116.25 265.480469 129.382812 C 271.914062 143.507812 277.222656 159.820312 280.480469 172.058594 C 279.761719 171.542969 278.949219 171.410156 278.207031 171.550781 C 274.953125 159.535156 269.808594 143.855469 263.605469 130.238281 C 257.773438 117.441406 251.035156 106.5 244.128906 102.265625 C 239.8125 99.613281 234.203125 98.804688 228.238281 97.9375 C 224.550781 97.40625 220.730469 96.851562 216.941406 95.839844 L 216.707031 95.738281 C 213.488281 93.941406 211.167969 90.601562 209.753906 85.722656 C 208.386719 81.007812 207.855469 74.824219 208.160156 67.160156 L 210.21875 67.242188 " fill-opacity="1" fill-rule="evenodd"/><path fill="rgb(6.669617%, 5.879211%, 5.488586%)" d="M 188.503906 81.027344 C 189.082031 84.488281 188.949219 87.65625 188.109375 90.523438 C 187.269531 93.417969 185.71875 95.988281 183.457031 98.238281 C 179.460938 102.226562 175.753906 103.753906 171.949219 105.328125 C 166.8125 107.445312 161.476562 109.648438 154.957031 118.597656 C 150.449219 124.785156 146.3125 135.386719 142.175781 145.992188 C 135.757812 162.445312 129.34375 178.898438 120.921875 179.898438 C 118.507812 180.1875 115.960938 179.613281 113.277344 178.183594 C 110.6875 176.804688 107.976562 174.621094 105.132812 171.628906 L 105.125 171.625 C 99.609375 165.753906 94.226562 160.871094 89.296875 156.976562 C 84.21875 152.964844 79.628906 149.996094 75.882812 148.070312 C 75.976562 149.523438 76.570312 150.996094 77.355469 152.335938 C 78.445312 154.210938 81.503906 157.933594 82.519531 158.992188 C 77.273438 157.878906 72.898438 151.761719 73.929688 146.273438 C 73.945312 146.1875 73.972656 146.105469 74.011719 146.027344 C 74.25 145.511719 74.863281 145.289062 75.382812 145.53125 C 79.488281 147.460938 84.730469 150.738281 90.574219 155.359375 C 95.585938 159.324219 101.046875 164.273438 106.628906 170.203125 C 109.320312 173.039062 111.859375 175.09375 114.25 176.367188 C 116.542969 177.589844 118.6875 178.082031 120.683594 177.847656 C 127.871094 176.988281 134.058594 161.113281 140.253906 145.242188 C 144.433594 134.523438 148.613281 123.800781 153.289062 117.386719 C 160.15625 107.960938 165.765625 105.644531 171.164062 103.417969 C 174.777344 101.925781 178.289062 100.476562 182.003906 96.777344 C 184.015625 94.769531 185.390625 92.5 186.132812 89.953125 C 186.878906 87.382812 186.992188 84.519531 186.46875 81.359375 L 188.503906 81.027344 " fill-opacity="1" fill-rule="evenodd"/><path fill="rgb(6.669617%, 5.879211%, 5.488586%)" d="M 218.207031 95.101562 C 216.972656 99.753906 211.988281 103.457031 206.011719 105.5 C 203.347656 106.410156 200.476562 106.996094 197.660156 107.191406 C 194.820312 107.390625 192.023438 107.191406 189.527344 106.527344 C 185.3125 105.414062 181.941406 102.992188 180.566406 98.957031 L 182.523438 98.292969 C 183.644531 101.585938 186.488281 103.585938 190.050781 104.53125 C 192.324219 105.132812 194.898438 105.3125 197.519531 105.128906 C 200.160156 104.945312 202.851562 104.398438 205.351562 103.542969 C 210.722656 101.707031 215.171875 98.5 216.207031 94.578125 L 218.207031 95.101562 " fill-opacity="1" fill-rule="evenodd"/><path fill="rgb(6.669617%, 5.879211%, 5.488586%)" d="M 162.753906 139.957031 C 160.640625 151.144531 159.097656 161.636719 158.128906 171.429688 C 157.15625 181.222656 156.761719 190.320312 156.929688 198.722656 L 154.867188 198.765625 C 154.695312 190.273438 155.097656 181.09375 156.074219 171.226562 C 156.554688 166.378906 159.597656 144.558594 162.753906 139.957031 " fill-opacity="1" fill-rule="evenodd"/><path fill="rgb(6.669617%, 5.879211%, 5.488586%)" d="M 74.863281 163.75 C 88.710938 180.347656 100.789062 191.839844 111.101562 198.238281 C 121.179688 204.488281 129.496094 205.828125 136.0625 202.257812 L 137.050781 204.070312 C 129.78125 208.019531 120.769531 206.664062 110.015625 199.992188 C 103.902344 196.203125 97.199219 190.675781 89.910156 183.417969 C 86.878906 180.394531 75.941406 168.660156 74.863281 163.75 " fill-opacity="1" fill-rule="evenodd"/><path fill="rgb(6.669617%, 5.879211%, 5.488586%)" d="M 81.296875 157.757812 L 87.898438 187.074219 C 88.085938 187.90625 87.5625 188.734375 86.730469 188.921875 C 85.894531 189.113281 85.070312 188.585938 84.882812 187.75 L 77.152344 153.429688 C 78.519531 154.566406 77.859375 153.800781 78.464844 155.132812 C 78.597656 156.902344 79.929688 157.753906 81.296875 157.757812 Z M 72.078125 130.890625 C 71.894531 130.054688 72.414062 129.230469 73.25 129.039062 C 74.082031 128.851562 74.910156 129.378906 75.097656 130.210938 L 79.019531 147.628906 C 78.3125 147.382812 77.65625 147.425781 77.070312 147.699219 C 76.941406 147.597656 76.804688 147.492188 76.648438 147.402344 L 75.714844 147.042969 L 72.078125 130.890625 " fill-opacity="1" fill-rule="evenodd"/><path fill="rgb(6.669617%, 5.879211%, 5.488586%)" d="M 238.285156 175.039062 L 229.179688 195.214844 C 228.957031 195.257812 228.738281 195.324219 228.527344 195.425781 L 225.472656 195.894531 L 235.164062 174.417969 C 236.007812 175.214844 237.203125 175.414062 238.285156 175.039062 Z M 249.355469 142.992188 C 249.703125 142.210938 250.621094 141.863281 251.402344 142.214844 C 252.183594 142.570312 252.527344 143.484375 252.175781 144.265625 L 245.390625 159.300781 C 245.289062 159.292969 245.191406 159.289062 245.09375 159.289062 C 243.667969 159.289062 242.65625 159.3125 241.78125 159.765625 L 249.355469 142.992188 " fill-opacity="1" fill-rule="evenodd"/><path fill="rgb(6.669617%, 5.879211%, 5.488586%)" d="M 73.34375 155.835938 C 74.632812 157.539062 75.886719 159.042969 77.113281 160.347656 C 78.332031 161.648438 79.519531 162.75 80.671875 163.652344 C 77 164.945312 72.769531 157.875 73.34375 155.835938 " fill-opacity="1" fill-rule="evenodd"/><path fill="rgb(6.669617%, 5.879211%, 5.488586%)" d="M 289.378906 185.683594 C 287.449219 181.707031 284.976562 178.136719 281.960938 174.972656 C 278.945312 171.808594 275.382812 169.050781 271.265625 166.699219 C 264.203125 162.652344 256.125 159.390625 248.738281 159.460938 C 243.058594 159.515625 237.757812 161.558594 233.636719 166.800781 C 237.460938 158.78125 245.484375 157.429688 248.722656 157.398438 C 256.539062 157.324219 264.96875 160.707031 272.296875 164.902344 C 276.578125 167.355469 280.292969 170.234375 283.457031 173.546875 C 286.617188 176.867188 289.210938 180.609375 291.238281 184.785156 L 289.378906 185.683594 " fill-opacity="1" fill-rule="evenodd"/><path fill="rgb(6.669617%, 5.879211%, 5.488586%)" d="M 240.511719 166.199219 C 238.96875 166.546875 237.527344 167.132812 236.203125 167.964844 C 234.871094 168.792969 233.65625 169.867188 232.550781 171.191406 C 232.414062 167.414062 238.34375 163.953125 240.511719 166.199219 " fill-opacity="1" fill-rule="evenodd"/><path fill="rgb(6.669617%, 5.879211%, 5.488586%)" d="M 239.609375 170.570312 C 237.757812 171.546875 236.230469 172.554688 235.035156 173.601562 C 234.730469 173.867188 234.449219 174.132812 234.1875 174.40625 C 235.511719 174.074219 236.769531 173.847656 237.957031 173.730469 C 240.042969 173.523438 241.910156 173.640625 243.566406 174.09375 C 243.621094 174.105469 243.675781 174.125 243.726562 174.148438 C 246.609375 175.417969 247.980469 175.441406 249.3125 175.464844 C 250.140625 175.476562 250.953125 175.492188 252.011719 175.71875 C 253.667969 176.078125 255.804688 176.945312 258.097656 178.976562 C 260.320312 180.949219 262.699219 184.027344 264.925781 188.835938 L 263.050781 189.699219 C 260.960938 185.183594 258.761719 182.324219 256.726562 180.523438 C 254.761719 178.78125 252.960938 178.039062 251.578125 177.738281 C 250.6875 177.546875 249.992188 177.539062 249.28125 177.527344 C 247.742188 177.5 246.164062 177.476562 242.957031 176.070312 C 241.554688 175.699219 239.957031 175.605469 238.160156 175.785156 C 236.285156 175.972656 234.199219 176.453125 231.894531 177.234375 C 231.640625 177.320312 231.355469 177.304688 231.101562 177.175781 C 230.589844 176.921875 230.386719 176.296875 230.644531 175.789062 C 231.769531 173.570312 234.898438 170.730469 239.609375 170.570312 " fill-opacity="1" fill-rule="evenodd"/><path fill="rgb(6.669617%, 5.879211%, 5.488586%)" d="M 285.507812 358.792969 C 274.726562 358.472656 266.242188 357.757812 265.175781 356.609375 L 265.175781 356.605469 C 264.988281 356.398438 264.875 356.160156 264.839844 355.902344 L 265.003906 332.253906 C 265.40625 331.945312 265.769531 331.511719 266.066406 330.933594 C 266.511719 330.617188 266.824219 330.25 267.023438 329.859375 L 266.839844 355.375 C 268.207031 356.074219 275.261719 356.535156 284.390625 356.78125 L 284.390625 356.785156 C 284.507812 357.695312 284.933594 358.359375 285.507812 358.792969 Z M 298.8125 236.980469 C 305.238281 251.867188 305.601562 271.378906 304.136719 290.882812 C 303.417969 300.429688 302.265625 309.949219 301.183594 318.921875 C 300.601562 323.730469 300.035156 328.386719 299.582031 332.660156 C 301.570312 333.535156 304.074219 334.542969 306.820312 335.652344 C 320.269531 341.085938 339.480469 348.84375 337.4375 356.410156 L 337.148438 356.890625 C 336.710938 357.292969 335.5 357.605469 333.6875 357.839844 C 327.085938 358.6875 310.703125 359.101562 295.691406 358.980469 C 293.445312 358.960938 291.238281 358.929688 289.089844 358.882812 C 289.695312 358.472656 290.144531 357.808594 290.242188 356.90625 C 292.027344 356.9375 293.855469 356.957031 295.707031 356.972656 C 310.644531 357.09375 326.914062 356.6875 333.4375 355.84375 C 334.484375 355.710938 335.214844 355.59375 335.566406 355.5 C 336.265625 349.714844 318.554688 342.558594 306.074219 337.515625 C 303.175781 336.351562 300.285156 335.183594 297.429688 333.902344 C 297.960938 328.824219 298.570312 323.753906 299.183594 318.683594 C 300.265625 309.734375 301.414062 300.222656 302.132812 290.734375 C 303.558594 271.71875 303.230469 252.703125 297.050781 238.210938 C 297.757812 238.050781 298.410156 237.640625 298.8125 236.980469 " fill-opacity="1" fill-rule="evenodd"/><path fill="rgb(6.669617%, 5.879211%, 5.488586%)" d="M 74.070312 342.910156 C 65.5625 347.097656 58.78125 351.800781 60.03125 356.433594 L 60.320312 356.90625 C 60.753906 357.304688 61.957031 357.617188 63.75 357.851562 C 70.296875 358.691406 86.539062 359.101562 101.425781 358.980469 C 116.503906 358.855469 130.308594 358.113281 131.679688 356.628906 L 131.679688 356.625 C 131.867188 356.417969 131.976562 356.1875 132.011719 355.925781 L 131.992188 352.941406 C 131.132812 352.984375 130.484375 352.691406 130.003906 352.179688 L 130.027344 355.402344 C 128.148438 356.367188 115.417969 356.875 101.410156 356.988281 C 86.601562 357.105469 70.46875 356.707031 64 355.875 C 62.960938 355.738281 62.234375 355.625 61.886719 355.527344 C 61.449219 351.898438 68.328125 347.71875 76.574219 343.878906 C 75.640625 343.65625 74.84375 343.542969 74.070312 342.910156 Z M 96.304688 321.949219 C 96.765625 325.761719 97.199219 329.449219 97.566406 332.886719 C 95.59375 333.75 93.113281 334.75 90.390625 335.851562 C 88.976562 336.421875 87.5 337.019531 85.992188 337.640625 C 86.265625 337.765625 86.542969 337.90625 86.804688 338.070312 C 87.335938 338.390625 87.867188 338.589844 88.339844 338.828125 C 92.136719 337.289062 95.960938 335.792969 99.695312 334.117188 C 99.410156 331.367188 99.101562 328.613281 98.78125 325.867188 L 98.234375 325.035156 C 97.449219 323.960938 96.839844 323.015625 96.304688 321.949219 " fill-opacity="1" fill-rule="evenodd"/><path fill="rgb(6.669617%, 5.879211%, 5.488586%)" d="M 273.90625 340.496094 C 271.351562 340.390625 268.734375 340.109375 266.054688 339.65625 L 266.398438 337.617188 C 268.96875 338.054688 271.484375 338.324219 273.929688 338.429688 C 273.683594 339.042969 273.640625 339.753906 273.90625 340.496094 Z M 299.5625 334.53125 C 293.441406 338 286.789062 339.945312 279.789062 340.425781 C 279.933594 339.796875 279.859375 339.089844 279.46875 338.371094 C 286.222656 337.933594 292.636719 336.085938 298.546875 332.738281 L 299.5625 334.53125 " fill-opacity="1" fill-rule="evenodd"/><path fill="rgb(6.669617%, 5.879211%, 5.488586%)" d="M 98.816406 332.578125 C 99.554688 332.917969 100.46875 333.175781 101.566406 333.355469 C 102.699219 333.542969 104.011719 333.640625 105.492188 333.648438 L 105.484375 335.710938 C 103.882812 335.703125 102.464844 335.597656 101.234375 335.394531 C 99.960938 335.183594 98.867188 334.871094 97.957031 334.453125 L 98.816406 332.578125 " fill-opacity="1" fill-rule="evenodd"/><path fill="rgb(6.669617%, 5.879211%, 5.488586%)" d="M 261.324219 161.234375 C 258.859375 162.609375 257.089844 164.582031 256.027344 167.160156 C 254.9375 169.804688 254.566406 173.09375 254.914062 177.03125 L 252.863281 177.207031 C 252.480469 172.9375 252.902344 169.324219 254.125 166.375 C 255.367188 163.351562 257.4375 161.039062 260.320312 159.429688 L 261.324219 161.234375 " fill-opacity="1" fill-rule="evenodd"/><path fill="rgb(6.669617%, 5.879211%, 5.488586%)" d="M 95.238281 160.816406 C 92.710938 163.351562 90.8125 166.101562 89.542969 169.070312 C 88.277344 172.035156 87.632812 175.21875 87.613281 178.628906 L 85.550781 178.617188 C 85.574219 174.925781 86.269531 171.472656 87.644531 168.261719 C 89.015625 165.050781 91.058594 162.082031 93.777344 159.359375 L 95.238281 160.816406 " fill-opacity="1" fill-rule="evenodd"/><path fill="rgb(6.669617%, 5.879211%, 5.488586%)" d="M 242.75 159.082031 C 240.914062 150.757812 238.496094 142.585938 235.496094 134.5625 C 239.007812 137.746094 242.957031 151.5625 244.769531 158.972656 C 244.125 158.816406 243.417969 158.753906 242.75 159.082031 Z M 247.769531 176.207031 C 248.449219 181.730469 248.878906 187.316406 249.070312 192.964844 L 247.003906 193.03125 C 246.808594 187.152344 246.34375 181.335938 245.613281 175.578125 C 246 175.726562 246.417969 175.855469 246.851562 176.015625 C 247.160156 176.128906 247.472656 176.191406 247.769531 176.207031 " fill-opacity="1" fill-rule="evenodd"/><path fill="rgb(6.669617%, 5.879211%, 5.488586%)" d="M 155.902344 198.746094 C 150.707031 199.253906 143.910156 200.519531 135.507812 202.546875 C 146.3125 196.699219 153.542969 183.46875 157.1875 162.847656 C 156.332031 186.78125 155.902344 198.746094 155.902344 198.746094 " fill-opacity="1" fill-rule="evenodd"/><path fill="rgb(6.669617%, 5.879211%, 5.488586%)" d="M 180.300781 51.21875 C 178.75 50.890625 177.15625 51.105469 175.519531 51.867188 C 173.804688 52.667969 172.039062 54.058594 170.226562 56.046875 C 170.867188 51.035156 179.046875 46.78125 180.300781 51.21875 " fill-opacity="1" fill-rule="evenodd"/><path fill="rgb(6.669617%, 5.879211%, 5.488586%)" d="M 174.671875 54.917969 C 175.242188 54.945312 177.238281 54.429688 177.75 54.238281 C 178.273438 54.039062 178.78125 53.722656 179.265625 53.289062 C 179.71875 55.53125 175.316406 56.707031 174.671875 54.917969 " fill-opacity="1" fill-rule="evenodd"/><path fill="rgb(6.669617%, 5.879211%, 5.488586%)" d="M 172.988281 78.988281 C 171.496094 77.941406 170.480469 75.640625 170.421875 71.695312 C 170.414062 71.628906 170.417969 71.566406 170.421875 71.507812 C 170.480469 70.9375 170.992188 70.527344 171.558594 70.589844 C 173.808594 70.828125 175.953125 70.425781 178 69.371094 C 180.09375 68.292969 182.101562 66.53125 184.019531 64.085938 C 184.210938 63.847656 184.511719 63.691406 184.835938 63.695312 C 185.410156 63.699219 185.867188 64.164062 185.863281 64.734375 C 185.800781 70.007812 182.714844 75.34375 179.433594 77.941406 C 178.375 78.773438 177.28125 79.347656 176.238281 79.570312 C 175.0625 79.828125 173.953125 79.664062 172.988281 78.988281 Z M 172.523438 72.71875 C 172.6875 75.253906 173.308594 76.695312 174.167969 77.300781 C 174.621094 77.617188 175.183594 77.683594 175.796875 77.550781 C 176.542969 77.390625 177.347656 76.960938 178.152344 76.320312 C 180.367188 74.574219 182.476562 71.40625 183.363281 67.933594 C 181.945312 69.332031 180.472656 70.421875 178.945312 71.210938 C 176.890625 72.265625 174.75 72.769531 172.523438 72.71875 " fill-opacity="1" fill-rule="evenodd"/></svg>